<svg width="187" height="34" viewBox="0 0 187 34" fill="none" xmlns="http://www.w3.org/2000/svg">
<path d="M23.7656 2.15625L27.9844 2.20312C28.5469 2.20312 29.0573 2.33854 29.5156 2.60938C29.9844 2.88021 30.2188 3.22917 30.2188 3.65625C30.2188 3.84375 30.1406 4.09375 29.9844 4.40625C29.3073 5.76042 28.1354 9.16667 26.4688 14.625C24.8125 20.0729 23.7812 23.3073 23.375 24.3281C22.9792 25.3385 22.5208 26.3073 22 27.2344C21.4896 28.1615 20.9635 28.9635 20.4219 29.6406C19.8802 30.3281 19.2917 30.9219 18.6562 31.4219C18.0208 31.9323 17.3854 32.349 16.75 32.6719C16.125 32.9948 15.4375 33.25 14.6875 33.4375C13.3333 33.7917 11.7917 33.9688 10.0625 33.9688C9.03125 33.9688 8.51562 33.6927 8.51562 33.1406C8.51562 32.8073 8.8125 32.3333 9.40625 31.7188C10.0104 31.1146 10.3594 30.75 10.4531 30.625C11.7135 29 13.1042 26.3021 14.625 22.5312C13.5625 23.3125 12.3073 23.9635 10.8594 24.4844C9.42188 25.0052 8.14062 25.2656 7.01562 25.2656C5.89062 25.2656 4.97396 25.1615 4.26562 24.9531C3.55729 24.7448 2.91146 24.4375 2.32812 24.0312C1.04688 23.1354 0.40625 21.776 0.40625 19.9531C0.40625 19.0781 0.609375 17.9688 1.01562 16.625C1.42188 15.2812 1.86458 14.0573 2.34375 12.9531C2.83333 11.849 3.31771 10.7708 3.79688 9.71875C4.27604 8.66667 4.54167 8.05208 4.59375 7.875C4.65625 7.69792 4.6875 7.52604 4.6875 7.35938C4.6875 6.67188 4.05208 6.22396 2.78125 6.01562C2.44792 5.96354 2.1875 5.85938 2 5.70312C1.8125 5.53646 1.71875 5.3125 1.71875 5.03125C1.71875 4.73958 1.95312 4.41667 2.42188 4.0625C2.89062 3.69792 3.54688 3.36458 4.39062 3.0625C6.31771 2.35417 8.88021 2 12.0781 2C13.9844 2 14.9375 2.56771 14.9375 3.70312C14.9375 4.53646 14.0417 6.95833 12.25 10.9688C10.4688 14.9688 9.57812 17.7031 9.57812 19.1719C9.57812 20.5677 10.4635 21.2656 12.2344 21.2656C13.1719 21.2656 14.2083 21.0833 15.3438 20.7188C17.3125 15.5208 19.0885 9.64062 20.6719 3.07812C20.7552 2.70312 21.0312 2.45833 21.5 2.34375C21.9792 2.21875 22.7344 2.15625 23.7656 2.15625ZM110.781 22.6562C112.74 22.6562 114.375 21.1562 115.688 18.1562C116.292 16.7812 116.594 15.6667 116.594 14.8125C116.594 13.9583 116.448 13.3698 116.156 13.0469C115.875 12.724 115.312 12.5625 114.469 12.5625C113.635 12.5625 112.729 12.9531 111.75 13.7344C110.781 14.5052 110 15.4792 109.406 16.6562C108.812 17.8333 108.516 18.8958 108.516 19.8438C108.516 20.7812 108.724 21.4844 109.141 21.9531C109.557 22.4219 110.104 22.6562 110.781 22.6562ZM118.906 9.42188L126.062 9.75C126.333 9.75 126.536 9.83333 126.672 10C126.807 10.1562 126.875 10.3333 126.875 10.5312C126.875 11.2917 126.557 12.5052 125.922 14.1719C125.297 15.8281 124.667 17.474 124.031 19.1094C123.406 20.7344 123.094 21.8125 123.094 22.3438C123.094 22.8646 123.172 23.1979 123.328 23.3438C123.495 23.4896 123.807 23.5625 124.266 23.5625C124.724 23.5625 125.557 23.3438 126.766 22.9062C127.984 22.4583 128.807 22.1198 129.234 21.8906C129.672 21.6615 130.005 21.5469 130.234 21.5469C130.641 21.5469 130.844 21.7292 130.844 22.0938C130.844 22.8646 129.281 23.875 126.156 25.125C125.104 25.5521 123.833 25.9062 122.344 26.1875C120.865 26.4792 119.359 26.625 117.828 26.625C115.276 26.625 113.74 25.8125 113.219 24.1875C111.594 25.8125 109.406 26.625 106.656 26.625C104.771 26.625 103.177 26.1719 101.875 25.2656C100.458 24.276 99.75 22.7188 99.75 20.5938C99.75 18.3542 100.411 16.2917 101.734 14.4062C103.182 12.3125 105.12 10.8698 107.547 10.0781C108.891 9.64062 110.333 9.42188 111.875 9.42188C114.24 9.42188 116.078 10.0052 117.391 11.1719C117.401 11.1094 117.406 11.0104 117.406 10.875L117.391 10.2031C117.391 9.68229 117.896 9.42188 118.906 9.42188Z" fill="#0D382E"/>
<path d="M35.4688 9.92188L42.5312 9.75C42.8021 9.75 43.0052 9.83333 43.1406 10C43.276 10.1562 43.3438 10.3958 43.3438 10.7188C43.3438 11.0312 43.0521 11.8542 42.4688 13.1875C41.8958 14.5104 41.3177 15.9219 40.7344 17.4219C40.151 18.9115 39.8594 20 39.8594 20.6875C39.8594 21.9792 40.5469 22.625 41.9219 22.625C42.5781 22.625 43.2969 22.5417 44.0781 22.375C44.3281 21.4896 44.7448 20.3177 45.3281 18.8594C46.8073 15.2031 47.6979 12.4219 48 10.5156C48.0521 10.1302 48.3281 9.9375 48.8281 9.9375C50.3385 9.9375 51.9271 9.90625 53.5938 9.84375C55.2604 9.78125 56.2188 9.75 56.4688 9.75C56.7292 9.75 56.9271 9.82292 57.0625 9.96875C57.2083 10.1042 57.2812 10.2344 57.2812 10.3594C57.2812 10.8594 56.9583 11.9167 56.3125 13.5312C55.6667 15.1458 55.0208 16.8177 54.375 18.5469C53.7292 20.2656 53.4062 21.5208 53.4062 22.3125C53.4062 23.1042 53.7552 23.5 54.4531 23.5C55.1615 23.5 56.1354 23.3125 57.375 22.9375C58.625 22.5521 59.4948 22.224 59.9844 21.9531C60.4844 21.6823 60.8073 21.5469 60.9531 21.5469C61.349 21.5469 61.5469 21.7344 61.5469 22.1094C61.5469 22.4844 61.2656 22.8438 60.7031 23.1875C60.151 23.5208 59.4792 23.8646 58.6875 24.2188C57.9062 24.5625 56.9635 24.9271 55.8594 25.3125C53.3177 26.1875 50.7292 26.625 48.0938 26.625C45.4583 26.625 43.974 25.9167 43.6406 24.5C42.6302 24.9167 41.8021 25.2448 41.1562 25.4844C40.5104 25.7135 39.6146 25.9583 38.4688 26.2188C37.3229 26.4896 36.2708 26.625 35.3125 26.625C32.25 26.625 30.7188 25.375 30.7188 22.875C30.7188 22.0104 30.8854 20.9635 31.2188 19.7344C31.5521 18.4948 31.9219 17.375 32.3281 16.375C33.401 13.7188 33.9375 12.0729 33.9375 11.4375C33.9375 10.7917 34.0312 10.3802 34.2188 10.2031C34.4062 10.0156 34.8229 9.92188 35.4688 9.92188Z" fill="#D7A35B"/>
<path d="M64.5 9.92188L71.9062 9.75C72.1771 9.75 72.3802 9.83333 72.5156 10C72.651 10.1562 72.7188 10.3542 72.7188 10.5938C72.7188 10.8229 72.6615 11.1979 72.5469 11.7188C75.3281 10.1875 77.75 9.42188 79.8125 9.42188C80.7083 9.42188 81.5365 9.64583 82.2969 10.0938C83.0677 10.5417 83.5677 11.2031 83.7969 12.0781C87.1927 10.3073 90.0052 9.42188 92.2344 9.42188C93.2135 9.42188 94.0781 9.69792 94.8281 10.25C95.6302 10.8542 96.0312 11.7083 96.0312 12.8125C96.0312 13.9062 95.8385 15.0625 95.4531 16.2812C95.0781 17.4896 94.6979 18.6198 94.3125 19.6719C93.9375 20.724 93.75 21.4688 93.75 21.9062C93.75 22.3333 93.8594 22.6562 94.0781 22.875C94.2969 23.0938 94.5885 23.2031 94.9531 23.2031C96.2969 23.2031 97.9635 22.7344 99.9531 21.7969C100.328 21.6302 100.615 21.5469 100.812 21.5469C101.281 21.5469 101.516 21.7344 101.516 22.1094C101.516 22.4427 101.312 22.7604 100.906 23.0625C100.51 23.3542 99.9323 23.6771 99.1719 24.0312C98.4115 24.3854 97.4688 24.7656 96.3438 25.1719C95.2292 25.5781 93.9167 25.9219 92.4062 26.2031C90.8958 26.4844 89.5469 26.625 88.3594 26.625C87.1823 26.625 86.3021 26.4271 85.7188 26.0312C85.1354 25.6354 84.8438 25.125 84.8438 24.5C84.8438 23.875 85.0417 22.9375 85.4375 21.6875C85.8438 20.4375 86.25 19.2031 86.6562 17.9844C87.0625 16.7552 87.2656 15.8646 87.2656 15.3125C87.2656 14.75 87.1302 14.349 86.8594 14.1094C86.5885 13.8594 86.1823 13.7344 85.6406 13.7344C85.1094 13.7344 84.5208 13.8177 83.875 13.9844C83.7083 15.7656 83.0156 18.4792 81.7969 22.125C81.2865 23.6562 81 24.6146 80.9375 25C80.875 25.3854 80.8333 25.6094 80.8125 25.6719C80.7917 25.724 80.7552 25.7969 80.7031 25.8906C80.6094 26.0573 80.4115 26.1406 80.1094 26.1406C78.6094 26.1406 77.125 26.1667 75.6562 26.2188C74.1979 26.2812 73.2552 26.3125 72.8281 26.3125C72.4115 26.3125 72.2031 26.0677 72.2031 25.5781C72.2031 25.0885 72.3646 24.3594 72.6875 23.3906C73.0104 22.4219 73.3698 21.4583 73.7656 20.5C74.7969 17.9583 75.3125 16.0625 75.3125 14.8125C75.3125 13.8854 74.7083 13.4219 73.5 13.4219C72.9896 13.4219 72.5052 13.5052 72.0469 13.6719C71.6406 15.0573 70.9375 17.25 69.9375 20.25C68.9479 23.25 68.3906 24.9375 68.2656 25.3125C68.099 25.8646 67.8021 26.1406 67.375 26.1406L59.3438 26.3125C59.2292 26.3125 59.099 26.2396 58.9531 26.0938C58.8177 25.9583 58.75 25.7969 58.75 25.6094C58.75 25.4115 58.9688 24.7292 59.4062 23.5625C59.8542 22.3854 60.3438 21.125 60.875 19.7812C61.4062 18.4271 61.8906 16.9427 62.3281 15.3281C62.776 13.7031 63 12.3594 63 11.2969L62.9844 10.7031C62.9844 10.1823 63.4896 9.92188 64.5 9.92188Z" fill="#963903"/>
<path d="M133.812 9.92188L141.219 9.75C141.49 9.75 141.693 9.83333 141.828 10C141.964 10.1562 142.031 10.3542 142.031 10.5938C142.031 10.8229 141.974 11.1979 141.859 11.7188C144.641 10.1875 147.062 9.42188 149.125 9.42188C150.021 9.42188 150.849 9.64583 151.609 10.0938C152.38 10.5417 152.88 11.2031 153.109 12.0781C156.505 10.3073 159.318 9.42188 161.547 9.42188C162.526 9.42188 163.391 9.69792 164.141 10.25C164.943 10.8542 165.344 11.7083 165.344 12.8125C165.344 13.9062 165.151 15.0625 164.766 16.2812C164.391 17.4896 164.01 18.6198 163.625 19.6719C163.25 20.724 163.062 21.4688 163.062 21.9062C163.062 22.3333 163.172 22.6562 163.391 22.875C163.609 23.0938 163.901 23.2031 164.266 23.2031C165.609 23.2031 167.276 22.7344 169.266 21.7969C169.641 21.6302 169.927 21.5469 170.125 21.5469C170.594 21.5469 170.828 21.7344 170.828 22.1094C170.828 22.4427 170.625 22.7604 170.219 23.0625C169.823 23.3542 169.245 23.6771 168.484 24.0312C167.724 24.3854 166.781 24.7656 165.656 25.1719C164.542 25.5781 163.229 25.9219 161.719 26.2031C160.208 26.4844 158.859 26.625 157.672 26.625C156.495 26.625 155.615 26.4271 155.031 26.0312C154.448 25.6354 154.156 25.125 154.156 24.5C154.156 23.875 154.354 22.9375 154.75 21.6875C155.156 20.4375 155.562 19.2031 155.969 17.9844C156.375 16.7552 156.578 15.8646 156.578 15.3125C156.578 14.75 156.443 14.349 156.172 14.1094C155.901 13.8594 155.495 13.7344 154.953 13.7344C154.422 13.7344 153.833 13.8177 153.188 13.9844C153.021 15.7656 152.328 18.4792 151.109 22.125C150.599 23.6562 150.312 24.6146 150.25 25C150.188 25.3854 150.146 25.6094 150.125 25.6719C150.104 25.724 150.068 25.7969 150.016 25.8906C149.922 26.0573 149.724 26.1406 149.422 26.1406C147.922 26.1406 146.438 26.1667 144.969 26.2188C143.51 26.2812 142.568 26.3125 142.141 26.3125C141.724 26.3125 141.516 26.0677 141.516 25.5781C141.516 25.0885 141.677 24.3594 142 23.3906C142.323 22.4219 142.682 21.4583 143.078 20.5C144.109 17.9583 144.625 16.0625 144.625 14.8125C144.625 13.8854 144.021 13.4219 142.812 13.4219C142.302 13.4219 141.818 13.5052 141.359 13.6719C140.953 15.0573 140.25 17.25 139.25 20.25C138.26 23.25 137.703 24.9375 137.578 25.3125C137.411 25.8646 137.115 26.1406 136.688 26.1406L128.656 26.3125C128.542 26.3125 128.411 26.2396 128.266 26.0938C128.13 25.9583 128.062 25.7969 128.062 25.6094C128.062 25.4115 128.281 24.7292 128.719 23.5625C129.167 22.3854 129.656 21.125 130.188 19.7812C130.719 18.4271 131.203 16.9427 131.641 15.3281C132.089 13.7031 132.312 12.3594 132.312 11.2969L132.297 10.7031C132.297 10.1823 132.802 9.92188 133.812 9.92188Z" fill="#A3C5C9"/>
<path d="M183.922 3.96875C183.922 5.08333 183.302 6.05729 182.062 6.89062C180.833 7.71354 179.531 8.125 178.156 8.125C176.792 8.125 175.729 7.84896 174.969 7.29688C174.208 6.73438 173.828 6.05208 173.828 5.25C173.828 4.44792 174.12 3.71875 174.703 3.0625C175.286 2.40625 176.042 1.89062 176.969 1.51562C177.906 1.14062 178.922 0.953125 180.016 0.953125C181.109 0.953125 182.031 1.24479 182.781 1.82812C183.542 2.40104 183.922 3.11458 183.922 3.96875ZM179.531 23.3594C180.24 23.3594 181.198 23.1927 182.406 22.8594C183.625 22.5156 184.51 22.2135 185.062 21.9531C185.615 21.6823 186 21.5469 186.219 21.5469C186.656 21.5469 186.875 21.7656 186.875 22.2031C186.875 22.401 186.714 22.625 186.391 22.875C185.328 23.6667 183.417 24.4896 180.656 25.3438C177.896 26.1979 175.432 26.625 173.266 26.625C171.922 26.625 170.797 26.4115 169.891 25.9844C168.984 25.5573 168.531 24.9062 168.531 24.0312C168.531 23.5 168.984 22.1979 169.891 20.125C171.599 16.1979 172.453 13.2396 172.453 11.25L172.438 10.6562C172.438 10.1354 172.943 9.875 173.953 9.875L181.672 9.70312C181.943 9.70312 182.146 9.78646 182.281 9.95312C182.417 10.1094 182.484 10.2865 182.484 10.4844C182.484 11.2031 182.156 12.3906 181.5 14.0469C180.844 15.6927 180.188 17.3125 179.531 18.9062C178.875 20.5 178.547 21.6406 178.547 22.3281C178.547 23.0156 178.875 23.3594 179.531 23.3594Z" fill="#0B042F"/>
</svg>
